<svg width="29" height="31" viewBox="0 0 29 31" fill="none" xmlns="http://www.w3.org/2000/svg">
<path fill-rule="evenodd" clip-rule="evenodd" d="M1.80016 15.4675C2.25352 15.0141 3.06329 15.0889 3.60885 15.6344L15.4627 27.4883C16.0082 28.0338 16.083 28.8436 15.6296 29.2969C15.1763 29.7503 14.3665 29.6756 13.821 29.13L1.96712 17.2762C1.42156 16.7306 1.34681 15.9208 1.80016 15.4675Z" fill="#222222"/>
<path fill-rule="evenodd" clip-rule="evenodd" d="M13.989 29.2969C13.5355 28.8434 13.6102 28.0335 14.1557 27.4879L26.0096 15.6341C26.5551 15.0886 27.365 15.0139 27.8185 15.4674C28.272 15.9209 28.1973 16.7308 27.6518 17.2763L15.7979 29.1302C15.2524 29.6757 14.4425 29.7504 13.989 29.2969Z" fill="#222222"/>
<path fill-rule="evenodd" clip-rule="evenodd" d="M14.6974 0.921204C15.3391 0.921204 15.8594 1.54549 15.8594 2.31559L15.8594 27.2597C15.8594 28.0298 15.3391 28.809 14.6974 28.809C14.0556 28.809 13.5354 28.0298 13.5354 27.2597L13.5354 2.31559C13.5354 1.54549 14.0556 0.921204 14.6974 0.921204Z" fill="#222222"/>
</svg>
