<svg width="29" height="28" viewBox="0 0 29 28" fill="none" xmlns="http://www.w3.org/2000/svg">
<path fill-rule="evenodd" clip-rule="evenodd" d="M8.17358 20.1142C8.17358 19.5857 8.60203 19.1573 9.13054 19.1573H20.614C21.1425 19.1573 21.571 19.5857 21.571 20.1142C21.571 20.6428 21.1425 21.0712 20.614 21.0712H9.13054C8.60203 21.0712 8.17358 20.6428 8.17358 20.1142Z" fill="white"></path>
<path fill-rule="evenodd" clip-rule="evenodd" d="M20.6141 21.071C20.0856 21.071 19.6572 20.6426 19.6572 20.114V8.63056C19.6572 8.10204 20.0856 7.6736 20.6141 7.6736C21.1426 7.6736 21.5711 8.10204 21.5711 8.63056V20.114C21.5711 20.6426 21.1426 21.071 20.6141 21.071Z" fill="white"></path>
<path fill-rule="evenodd" clip-rule="evenodd" d="M7.42898 6.92887C7.8027 6.55515 8.40861 6.55515 8.78232 6.92887L20.9624 19.1089C21.3361 19.4827 21.3361 20.0886 20.9624 20.4623C20.5887 20.836 19.9828 20.836 19.6091 20.4623L7.42898 8.28221C7.05527 7.9085 7.05527 7.30258 7.42898 6.92887Z" fill="white"></path>
</svg>
