<svg width="187" height="27" viewBox="0 0 187 27" fill="none" xmlns="http://www.w3.org/2000/svg">
<path d="M9.26899 6.71276C10.8095 6.71276 12.1821 7.04851 13.3869 7.72001C14.6114 8.39151 15.5692 9.3395 16.2605 10.564C16.9517 11.7885 17.2974 13.2006 17.2974 14.8004C17.2974 16.4001 16.9517 17.8221 16.2605 19.0664C15.5692 20.2909 14.6114 21.2389 13.3869 21.9104C12.1821 22.5819 10.8095 22.9176 9.26899 22.9176C8.18274 22.9176 7.18537 22.73 6.27687 22.3547C5.38812 21.9795 4.63762 21.4166 4.02537 20.6661V22.7102H0.5V0.728516H4.20312V8.81613C4.83512 8.12488 5.57574 7.60151 6.42499 7.24601C7.29399 6.89051 8.24199 6.71276 9.26899 6.71276ZM8.85424 19.7477C10.217 19.7477 11.3329 19.2935 12.2019 18.385C13.0906 17.4765 13.535 16.2816 13.535 14.8004C13.535 13.3191 13.0906 12.1243 12.2019 11.2158C11.3329 10.3073 10.217 9.853 8.85424 9.853C7.96549 9.853 7.16562 10.0604 6.45462 10.4751C5.74362 10.8701 5.18074 11.4429 4.76599 12.1934C4.35124 12.9439 4.14387 13.8129 4.14387 14.8004C4.14387 15.7879 4.35124 16.6569 4.76599 17.4074C5.18074 18.1579 5.74362 18.7405 6.45462 19.1552C7.16562 19.5502 7.96549 19.7477 8.85424 19.7477Z" fill="black"></path>
<path d="M26.438 22.9176C24.8383 22.9176 23.3965 22.572 22.1128 21.8807C20.829 21.1895 19.8218 20.2316 19.091 19.0071C18.3801 17.7629 18.0246 16.3606 18.0246 14.8004C18.0246 13.2401 18.3801 11.8478 19.091 10.6233C19.8218 9.39875 20.829 8.44088 22.1128 7.74963C23.3965 7.05838 24.8383 6.71276 26.438 6.71276C28.0575 6.71276 29.5092 7.05838 30.7929 7.74963C32.0767 8.44088 33.074 9.39875 33.785 10.6233C34.5158 11.8478 34.8812 13.2401 34.8812 14.8004C34.8812 16.3606 34.5158 17.7629 33.785 19.0071C33.074 20.2316 32.0767 21.1895 30.7929 21.8807C29.5092 22.572 28.0575 22.9176 26.438 22.9176ZM26.438 19.7477C27.8008 19.7477 28.9265 19.2935 29.8153 18.385C30.704 17.4765 31.1484 16.2816 31.1484 14.8004C31.1484 13.3191 30.704 12.1243 29.8153 11.2158C28.9265 10.3073 27.8008 9.853 26.438 9.853C25.0753 9.853 23.9495 10.3073 23.0608 11.2158C22.1918 12.1243 21.7573 13.3191 21.7573 14.8004C21.7573 16.2816 22.1918 17.4765 23.0608 18.385C23.9495 19.2935 25.0753 19.7477 26.438 19.7477Z" fill="black"></path>
<path d="M82.0317 6.71253C84.0264 6.71253 85.6064 7.29515 86.7717 8.4604C87.9369 9.6059 88.5195 11.334 88.5195 13.6448V22.71H84.8164V14.1188C84.8164 12.7363 84.5103 11.6994 83.898 11.0081C83.2858 10.2971 82.4069 9.94165 81.2614 9.94165C80.0172 9.94165 79.0198 10.3564 78.2693 11.1859C77.5188 11.9956 77.1436 13.1609 77.1436 14.6816V22.71H73.4404V14.1188C73.4404 12.7363 73.1343 11.6994 72.5221 11.0081C71.9098 10.2971 71.0309 9.94165 69.8854 9.94165C68.6214 9.94165 67.6142 10.3465 66.8637 11.1563C66.1329 11.966 65.7676 13.1411 65.7676 14.6816V22.71H62.0645V6.89028H65.5898V8.90477C66.1823 8.19377 66.9229 7.65065 67.8117 7.2754C68.7004 6.90015 69.6879 6.71253 70.7742 6.71253C71.9592 6.71253 73.0059 6.93965 73.9144 7.3939C74.8427 7.8284 75.5734 8.48015 76.1067 9.34915C76.7584 8.51965 77.5978 7.87777 78.6248 7.42352C79.6518 6.94953 80.7874 6.71253 82.0317 6.71253Z" fill="black"></path>
<path d="M96.6585 22.9174C95.3748 22.9174 94.1207 22.7495 92.8962 22.4138C91.6717 22.078 90.694 21.6534 89.9633 21.1399L91.3853 18.3255C92.0963 18.7995 92.9455 19.1846 93.933 19.4809C94.9403 19.7574 95.9278 19.8956 96.8955 19.8956C99.1075 19.8956 100.214 19.313 100.214 18.1478C100.214 17.5948 99.9272 17.2096 99.3544 16.9924C98.8014 16.7751 97.9028 16.5678 96.6585 16.3703C95.355 16.1728 94.2885 15.9456 93.459 15.6889C92.6493 15.4321 91.9383 14.9878 91.326 14.3558C90.7335 13.704 90.4373 12.8054 90.4373 11.6599C90.4373 10.1589 91.0594 8.96402 92.3037 8.07527C93.5677 7.16678 95.2662 6.71253 97.3992 6.71253C98.4854 6.71253 99.5717 6.8409 100.658 7.09765C101.744 7.33465 102.633 7.66052 103.324 8.07527L101.902 10.8896C100.559 10.0996 99.0483 9.70465 97.3695 9.70465C96.2833 9.70465 95.4538 9.87252 94.881 10.2083C94.328 10.5243 94.0515 10.9489 94.0515 11.4821C94.0515 12.0746 94.3478 12.4993 94.9403 12.756C95.5525 12.993 96.4907 13.2201 97.7547 13.4374C99.0187 13.6349 100.056 13.862 100.865 14.1188C101.675 14.3755 102.366 14.81 102.939 15.4223C103.532 16.0345 103.828 16.9035 103.828 18.0293C103.828 19.5105 103.186 20.6955 101.902 21.5843C100.618 22.473 98.8705 22.9174 96.6585 22.9174Z" fill="black"></path>
<path d="M115.045 21.8509C114.611 22.2064 114.077 22.473 113.445 22.6508C112.833 22.8285 112.181 22.9174 111.49 22.9174C109.752 22.9174 108.409 22.4631 107.461 21.5546C106.513 20.6461 106.039 19.3229 106.039 17.5849V9.97127H103.432V7.00878H106.039V3.39453H109.742V7.00878H113.979V9.97127H109.742V17.496C109.742 18.2663 109.93 18.8588 110.305 19.2735C110.68 19.6685 111.224 19.866 111.935 19.866C112.764 19.866 113.455 19.6488 114.008 19.2143L115.045 21.8509Z" fill="black"></path>
<path d="M120.136 9.20102C121.202 7.54202 123.078 6.71253 125.764 6.71253V10.2379C125.448 10.1786 125.162 10.149 124.905 10.149C123.463 10.149 122.338 10.5736 121.528 11.4229C120.718 12.2524 120.313 13.4571 120.313 15.0371V22.71H116.61V6.89028H120.136V9.20102Z" fill="black"></path>
<path d="M142.152 14.889C142.152 15.1458 142.132 15.5111 142.092 15.9851H129.679C129.897 17.1504 130.46 18.0786 131.368 18.7699C132.296 19.4414 133.442 19.7771 134.805 19.7771C136.543 19.7771 137.974 19.2044 139.1 18.0589L141.085 20.34C140.374 21.1893 139.475 21.8311 138.389 22.2656C137.303 22.7001 136.078 22.9174 134.716 22.9174C132.978 22.9174 131.447 22.5718 130.124 21.8805C128.801 21.1893 127.774 20.2314 127.043 19.0069C126.332 17.7626 125.976 16.3604 125.976 14.8001C125.976 13.2596 126.322 11.8771 127.013 10.6526C127.724 9.4084 128.702 8.44065 129.946 7.7494C131.19 7.05815 132.593 6.71253 134.153 6.71253C135.693 6.71253 137.066 7.05815 138.271 7.7494C139.495 8.4209 140.443 9.37877 141.115 10.623C141.806 11.8475 142.152 13.2695 142.152 14.889ZM134.153 9.67502C132.968 9.67502 131.961 10.0305 131.131 10.7415C130.321 11.4328 129.828 12.361 129.65 13.5263H138.626C138.468 12.3808 137.984 11.4525 137.175 10.7415C136.365 10.0305 135.358 9.67502 134.153 9.67502Z" fill="black"></path>
<path d="M149.837 6.71253C152.167 6.71253 153.945 7.2754 155.169 8.40115C156.414 9.50715 157.036 11.1859 157.036 13.4374V22.71H153.54V20.7844C153.086 21.4756 152.434 22.0089 151.585 22.3841C150.755 22.7396 149.748 22.9174 148.563 22.9174C147.378 22.9174 146.341 22.7199 145.452 22.3249C144.564 21.9101 143.872 21.3473 143.379 20.6363C142.905 19.9055 142.668 19.0859 142.668 18.1774C142.668 16.7554 143.191 15.6198 144.238 14.7705C145.304 13.9015 146.973 13.467 149.244 13.467H153.333V13.23C153.333 12.124 152.997 11.2748 152.325 10.6823C151.674 10.0898 150.696 9.79352 149.393 9.79352C148.504 9.79352 147.625 9.93177 146.756 10.2083C145.907 10.4848 145.186 10.8699 144.593 11.3636L143.142 8.66777C143.971 8.03577 144.969 7.5519 146.134 7.21615C147.299 6.8804 148.533 6.71253 149.837 6.71253ZM149.333 20.2215C150.262 20.2215 151.081 20.0141 151.792 19.5994C152.523 19.1649 153.036 18.5526 153.333 17.7626V15.9259H149.511C147.378 15.9259 146.312 16.627 146.312 18.0293C146.312 18.7008 146.578 19.234 147.111 19.629C147.645 20.024 148.385 20.2215 149.333 20.2215Z" fill="black"></path>
<path d="M180.274 6.71253C182.269 6.71253 183.849 7.29515 185.014 8.4604C186.18 9.6059 186.762 11.334 186.762 13.6448V22.71H183.059V14.1188C183.059 12.7363 182.753 11.6994 182.141 11.0081C181.528 10.2971 180.65 9.94165 179.504 9.94165C178.26 9.94165 177.262 10.3564 176.512 11.1859C175.761 11.9956 175.386 13.1609 175.386 14.6816V22.71H171.683V14.1188C171.683 12.7363 171.377 11.6994 170.765 11.0081C170.152 10.2971 169.274 9.94165 168.128 9.94165C166.864 9.94165 165.857 10.3465 165.106 11.1563C164.376 11.966 164.01 13.1411 164.01 14.6816V22.71H160.307V6.89028H163.832V8.90477C164.425 8.19377 165.166 7.65065 166.054 7.2754C166.943 6.90015 167.931 6.71253 169.017 6.71253C170.202 6.71253 171.249 6.93965 172.157 7.3939C173.085 7.8284 173.816 8.48015 174.349 9.34915C175.001 8.51965 175.84 7.87777 176.867 7.42352C177.894 6.94953 179.03 6.71253 180.274 6.71253Z" fill="black"></path>
<path d="M59.5256 14.5008C59.5256 20.8292 54.393 25.9594 48.0616 25.9594C41.7302 25.9594 36.5976 20.8292 36.5976 14.5008C36.5976 8.17233 41.7302 3.04211 48.0616 3.04211C54.393 3.04211 59.5256 8.17233 59.5256 14.5008Z" fill="white"></path>
<path d="M42.3298 4.5539C46.25 2.14045 51.5295 2.29198 55.6022 5.76004C58.9208 8.47276 60.4276 12.8523 59.2225 17.5191C57.6839 16.7049 55.6324 15.6193 54.0938 14.8052C50.0814 12.5436 46.8534 10.8851 42.3281 8.32326C42.3283 6.96631 42.3599 5.941 42.3298 4.5539Z" fill="#9FD700"></path>
<path d="M43.8366 21.2278C42.7203 21.9214 41.5739 22.6149 40.4577 23.3085C37.1392 20.2629 35.9026 16.4034 36.7474 12.0913C37.5317 8.20137 40.3677 5.15578 43.837 3.79883C43.837 5.15578 43.837 6.36195 43.837 7.7189C43.9276 12.1817 43.7762 16.765 43.8366 21.2278Z" fill="#FF7324"></path>
<path d="M53.4805 14.5C55.0191 15.3142 57.674 16.7013 59.2126 17.5154C58.3075 21.2847 55.116 24.3584 52.123 25.3556C48.5028 26.5618 43.9775 26.5618 39.7539 22.6417C40.8701 21.9481 41.9562 21.3752 43.0724 20.6817C47.0245 18.4804 49.5285 16.7013 53.4805 14.5Z" fill="#662BFF"></path>
</svg>
