<svg width="29" height="28" fill="none" xmlns="http://www.w3.org/2000/svg"><path fill-rule="evenodd" clip-rule="evenodd" d="M8.174 20.114c0-.528.428-.957.957-.957h11.483a.957.957 0 1 1 0 1.914H9.131a.957.957 0 0 1-.957-.957Z" fill="#fff"/><path fill-rule="evenodd" clip-rule="evenodd" d="M20.614 21.071a.957.957 0 0 1-.957-.957V8.631a.957.957 0 1 1 1.914 0v11.483a.957.957 0 0 1-.957.957Z" fill="#fff"/><path fill-rule="evenodd" clip-rule="evenodd" d="M7.429 6.929a.957.957 0 0 1 1.353 0l12.18 12.18a.957.957 0 0 1-1.353 1.353L7.43 8.282a.957.957 0 0 1 0-1.353Z" fill="#fff"/></svg>